<svg xmlns="http://www.w3.org/2000/svg" width="41" height="27" viewBox="0 0 41 27">
  <path id="Vector" d="M34.1,10.455a9.726,9.726,0,0,1,.136,3.063c3.6,2.262,4.213,3.627,4.187,3.851-.005.008-.688.81-4.625.526-.506-.037-1.038-.09-1.591-.158A13.25,13.25,0,0,0,32.9,13.5,13.734,13.734,0,0,0,6.447,8.568C3.142,6.432,2.555,5.141,2.58,4.924c.005-.008.581-.866,4.513-.583A7.237,7.237,0,0,1,9.335,2c-.553-.065-1.357-.1-1.94-.14-4.232-.3-6.6.416-7.243,2.206-.685,1.911.936,4.093,4.955,6.675.194.124.4.249.606.374A13.309,13.309,0,0,0,5.5,13.5a13.739,13.739,0,0,0,25.622,6.653c.877.126,1.713.22,2.494.277,4.232.3,6.6-.416,7.242-2.207C41.744,15.739,38.479,12.925,34.1,10.455ZM19.2,24.387A10.982,10.982,0,0,1,8.148,13.5c0-.327.017-.649.046-.969a71.325,71.325,0,0,0,8.442,3.746,4.91,4.91,0,0,1,.888-2.385A67.016,67.016,0,0,1,8.758,9.939,11.074,11.074,0,0,1,30.252,13.5a10.689,10.689,0,0,1-.7,3.817c-.907-.17-1.849-.371-2.819-.6,0,.008,0,.015,0,.024a4.889,4.889,0,0,1-.65,2.435q1.136.271,2.223.489A11.091,11.091,0,0,1,19.2,24.387Z" fill="#575568"/>
</svg>
