<svg xmlns="http://www.w3.org/2000/svg" width="17" height="18" viewBox="0 0 17 18">
  <g id="Group_587" data-name="Group 587" transform="translate(-40 -73)">
    <path id="Vector" d="M1.926,3.884q6.576.233,13.136,0c2.576-.078,2.592-3.96,0-3.882Q8.518.2,1.926,0c-2.576-.093-2.56,3.789,0,3.882Z" transform="translate(40 73)" fill="#fff"/>
    <path id="Vector-2" data-name="Vector" d="M2.027,4H9.973a2.041,2.041,0,0,0,1.433-.586,1.981,1.981,0,0,0,0-2.828A2.041,2.041,0,0,0,9.973,0H2.027A2.041,2.041,0,0,0,.594.586a1.981,1.981,0,0,0,0,2.828A2.041,2.041,0,0,0,2.027,4Z" transform="translate(44 80)" fill="#fff"/>
    <path id="Vector-3" data-name="Vector" d="M1.931,3.891,6.069,4a1.923,1.923,0,0,0,1.365-.57,1.956,1.956,0,0,0,0-2.751A1.923,1.923,0,0,0,6.069.109L1.931,0A1.923,1.923,0,0,0,.565.57a1.956,1.956,0,0,0,0,2.751,1.923,1.923,0,0,0,1.365.57Z" transform="translate(48 87)" fill="#fff"/>
  </g>
</svg>
