<svg xmlns="http://www.w3.org/2000/svg" width="27" height="27" viewBox="0 0 27 27">
  <path id="Vector" d="M13.592.005a.893.893,0,0,1,.543.216,1.062,1.062,0,0,1-.677,1.857h-.111A11.552,11.552,0,0,0,5.318,5.524,11.662,11.662,0,0,0,3.413,18.9a11.6,11.6,0,0,0,8.27,5.9,11.671,11.671,0,0,0,11.86-5.843,11.629,11.629,0,0,0-.593-11.866,11.508,11.508,0,0,0-5.538-4.319l-.091-.038a.9.9,0,0,1-.435-.392,1.065,1.065,0,0,1,1.3-1.5,13.694,13.694,0,0,1,8.788,11.874A13.726,13.726,0,0,1,22.209,23.83,13.724,13.724,0,0,1,9.2,26.324,13.743,13.743,0,0,1,.179,15.775,13.782,13.782,0,0,1,5.943,2.308,13.564,13.564,0,0,1,13.494,0ZM19.462,6.6a.89.89,0,0,1,.4.116A1.042,1.042,0,0,1,20.31,8.08l-3.8,7.957a.877.877,0,0,1-.49.49l-7.955,3.8a.807.807,0,0,1-.807.038,1.075,1.075,0,0,1-.629-1.3.963.963,0,0,1,.051-.128l3.8-7.958a.874.874,0,0,1,.489-.489l7.956-3.8A1.166,1.166,0,0,1,19.462,6.6ZM12.2,12.212,9.822,17.185l4.972-2.375,2.374-4.974Z" fill="#fff"/>
</svg>
