<svg xmlns="http://www.w3.org/2000/svg" width="24.935" height="27" viewBox="0 0 24.935 27">
  <g id="Group_585" data-name="Group 585" transform="translate(-314 -834)" opacity="0.3">
    <path id="Vector" d="M7.927,15.888a7.944,7.944,0,1,1,7.927-7.961A7.937,7.937,0,0,1,7.927,15.888Zm0-13.178a5.234,5.234,0,1,0,5.251,5.217A5.255,5.255,0,0,0,7.927,2.71Z" transform="translate(318.573 834)" fill="#d8d8d8"/>
    <path id="Vector-2" data-name="Vector" d="M23.646,13.822a1.359,1.359,0,0,1-1.355-1.355,9.79,9.79,0,0,0-19.581,0,1.355,1.355,0,1,1-2.71,0,12.467,12.467,0,0,1,24.934,0A1.282,1.282,0,0,1,23.646,13.822Z" transform="translate(314 847.178)" fill="#d8d8d8"/>
  </g>
</svg>
